# xmcd
#
# Track frame offsets: 
#        150
#        16525
#        32000
#        45300
#        68525
#        83945
#        103537
#        119725
#        121162
#        133162
#        155850
#        167912
#        182500
#        185487
#        198612
#        217662
#
# Disc length: 3160 seconds
#
# Revision: 2
# Processed by: cddbd v1.4PL0 Copyright (c) Steve Scherf et al.
# Submitted via: ExactAudioCopy v0.90b4
#
DISCID=d40c5610
DTITLE=Ronny Depp and Ramblin' Minds - Absolut gehör
DYEAR=1995
DGENRE=Blues
TTITLE0=Jämna plågor
TTITLE1=Jag måste vara galen
TTITLE2=Det mesta rår nog spriten för
TTITLE3=Hur blåst kan man bli
TTITLE4=När du en gång lämnar mig
TTITLE5=Det liknar fan, sa Holger
TTITLE6=Lite grann ska man väl ändå tåla
TTITLE7=Absolut gehör
TTITLE8=Liikavaara-Frans son möter Elmore James och uppnår Status Quo
TTITLE9=Gråtvals
TTITLE10=Här kommer jag med mitt fiske spö älskling
TTITLE11=Nån gång
TTITLE12=Min fru har inga celluliter
TTITLE13=Med guds hjälp och Bingolotto
TTITLE14=Vischan blues
TTITLE15=Minnena behöver oss (till Bubben)
EXTD=Ramblin Minds består av: Anna Wedin - bas and sång.\nKatarina Larss
EXTD=on - trummor and percussion. Leo Homberg -\ngitarr and sång. Vidare m
EXTD=edverkade: Mikael Bäckman - \nmunspel på låtarna 1, 2, 3, 5, 7, 1
EXTD=1, 13, 14. Tommy \nPettersson - munspel på låtarna 7, 10, 12. Mar
EXTD=tin Larsson -\nhammond på låt 4. David Myhr . piano på låt 7. Bjö
EXTD=rn Sjöö -\ntrombon på låt 15. Magnus Ekholm - trumpet på låt 5. B
EXTD=osse\nStrandberg - trumpet på låt 5. Per moberg - barytonsax på\n
EXTD=låt 5. Björn Raberg - dragspel på låt 10. Tekniker: Joakim\nDavid
EXTD=sson and Henrik Davidsson. Inspellad v. 6 i Sveriges\nRadios studio
EXTD=i Luleå. Arrangemang av Ramblin' Minds.
EXTT0=
EXTT1=
EXTT2=
EXTT3=
EXTT4=
EXTT5=
EXTT6=
EXTT7=
EXTT8=
EXTT9=
EXTT10=
EXTT11=
EXTT12=
EXTT13=
EXTT14=
EXTT15=
PLAYORDER=
